<mxfile host="app.diagrams.net" modified="2024-02-12T04:45:33.774Z" agent="Mozilla/5.0 (Windows NT 10.0; Win64; x64) AppleWebKit/537.36 (KHTML, like Gecko) Chrome/121.0.0.0 Safari/537.36" version="23.1.2" etag="1Ozek-6lwTSrlml2E20b" type="github">
  <diagram name="Page-1" id="dtLuk9tF1FNc57bp2pO3">
    <mxGraphModel>
      <root>
        <mxCell id="0" />
        <mxCell id="1" parent="0" />
      </root>
    </mxGraphModel>
  </diagram>
</mxfile>
